<svg xmlns="http://www.w3.org/2000/svg" viewBox="4 8 120 120">
  <defs>
    <linearGradient id="grad1" x1="0%" y1="0%" x2="0%" y2="100%">
      <stop offset="0%" style="stop-color:#4285f4;stop-opacity:1" />
      <stop offset="100%" style="stop-color:#0d47a1;stop-opacity:1" />
    </linearGradient>
    <filter id="shadow" x="-20%" y="-20%" width="140%" height="140%">
      <feDropShadow dx="0" dy="4" stdDeviation="4" flood-color="#000000" flood-opacity="0.3"/>
    </filter>
  </defs>
  
  <!-- Main Bookmark Shape with Shadow -->
  <path d="M28 10h72c4.4 0 8 3.6 8 8v100l-44-22-44 22V18c0-4.4 3.6-8 8-8z" fill="url(#grad1)" filter="url(#shadow)" />
  
  <!-- "Neat" Lines -->
  <rect x="44" y="35" width="40" height="6" rx="2" ry="2" fill="white" fill-opacity="0.9" />
  <rect x="44" y="52" width="40" height="6" rx="2" ry="2" fill="white" fill-opacity="0.9" />
  <rect x="44" y="69" width="28" height="6" rx="2" ry="2" fill="white" fill-opacity="0.9" />
  
  <!-- Subtle top highlight -->
  <path d="M28 10h72c4.4 0 8 3.6 8 8v4c0-2.2-1.8-4-4-4H24c-2.2 0-4 1.8-4 4v-4c0-4.4 3.6-8 8-8z" fill="white" fill-opacity="0.2"/>
</svg>