<svg xmlns="http://www.w3.org/2000/svg" viewBox="10 15 108 108">
  <defs>
    <linearGradient id="grad6" x1="0%" y1="0%" x2="0%" y2="100%">
      <stop offset="0%" style="stop-color:#455a64;stop-opacity:1" />
      <stop offset="100%" style="stop-color:#263238;stop-opacity:1" />
    </linearGradient>
    <filter id="dropShadow6" x="-20%" y="-20%" width="140%" height="140%">
      <feDropShadow dx="0" dy="2" stdDeviation="2" flood-opacity="0.5"/>
    </filter>
  </defs>
  
  <!-- Folder Back -->
  <path d="M14 30 L114 30 L114 100 A 10 10 0 0 1 104 110 L24 110 A 10 10 0 0 1 14 100 Z" fill="#263238" />
  
  <!-- Folder Front -->
  <path d="M14 45 L50 45 L60 35 L114 35 L114 100 A 10 10 0 0 1 104 110 L24 110 A 10 10 0 0 1 14 100 Z" fill="url(#grad6)" filter="url(#dropShadow6)" />
  
  <!-- Star Icon (Gold/Amber to pop on dark) -->
  <path d="M64 55 l6 18 h18 l-14 11 5 18 -15 -10 -15 10 5 -18 -14 -11 h18 z" fill="#ffca28" stroke="#ff6f00" stroke-width="2" />
</svg>