<svg xmlns="http://www.w3.org/2000/svg" viewBox="10 15 108 108">
  <defs>
    <linearGradient id="grad3" x1="0%" y1="0%" x2="0%" y2="100%">
      <stop offset="0%" style="stop-color:#fbc02d;stop-opacity:1" />
      <stop offset="100%" style="stop-color:#f57f17;stop-opacity:1" />
    </linearGradient>
    <filter id="dropShadow" x="-20%" y="-20%" width="140%" height="140%">
      <feDropShadow dx="0" dy="2" stdDeviation="2" flood-opacity="0.2"/>
    </filter>
  </defs>
  
  <!-- Folder Back -->
  <path d="M14 30 L114 30 L114 100 A 10 10 0 0 1 104 110 L24 110 A 10 10 0 0 1 14 100 Z" fill="#f9a825" />
  
  <!-- Folder Front -->
  <path d="M14 45 L50 45 L60 35 L114 35 L114 100 A 10 10 0 0 1 104 110 L24 110 A 10 10 0 0 1 14 100 Z" fill="url(#grad3)" filter="url(#dropShadow)" />
  
  <!-- Star Icon -->
  <path d="M64 55 l6 18 h18 l-14 11 5 18 -15 -10 -15 10 5 -18 -14 -11 h18 z" fill="#fff" stroke="#f57f17" stroke-width="2" />
</svg>